<?xml version="1.0" standalone="no"?>
<!DOCTYPE svg PUBLIC "-//W3C//DTD SVG 20010904//EN"
 "http://www.w3.org/TR/2001/REC-SVG-20010904/DTD/svg10.dtd">
<svg version="1.0" xmlns="http://www.w3.org/2000/svg"
 width="300.000000pt" height="300.000000pt" viewBox="0 0 300.000000 300.000000"
 preserveAspectRatio="xMidYMid meet">
<metadata>
Created by potrace 1.10, written by Peter Selinger 2001-2011
</metadata>
<g transform="translate(0.000000,300.000000) scale(0.100000,-0.100000)"
fill="#000000" stroke="none">
<path d="M1695 2976 c10 -14 20 -26 24 -26 14 0 41 -59 41 -88 0 -17 -7 -38
-16 -47 -16 -15 -21 -13 -73 39 -59 58 -142 106 -183 106 -49 0 -127 -30 -145
-56 -10 -14 -39 -51 -65 -81 -27 -31 -48 -60 -48 -64 0 -4 -7 -15 -16 -23 -13
-14 -19 -14 -50 -1 -52 22 -159 101 -203 151 -23 27 -42 40 -46 34 -9 -14 56
-110 122 -182 29 -32 53 -61 53 -66 0 -16 98 -82 121 -82 l24 -1 -26 -22 c-15
-12 -29 -34 -33 -48 -3 -15 -22 -41 -41 -58 -34 -29 -37 -30 -59 -15 -17 11
-26 12 -31 4 -4 -7 2 -14 15 -17 25 -7 25 -10 -16 -123 -19 -55 -28 -102 -31
-175 -4 -76 -10 -105 -23 -120 -35 -40 -44 -72 -48 -177 -3 -76 0 -128 12
-180 8 -40 20 -110 25 -154 6 -45 16 -93 22 -108 16 -34 53 -44 79 -21 28 25
28 11 4 -130 l-16 -90 -102 -99 c-55 -54 -110 -105 -121 -112 -12 -8 -57 -18
-100 -24 -157 -22 -422 -92 -540 -145 -54 -23 -94 -74 -109 -140 -14 -58 -52
-74 -80 -33 -16 22 -16 22 -16 -10 0 -26 5 -35 26 -42 44 -17 78 10 117 92 24
51 44 78 66 91 55 32 317 112 431 132 19 3 74 12 122 20 49 7 94 19 102 27 7
7 30 27 51 43 21 17 54 45 73 63 l35 32 40 -62 c50 -79 118 -169 177 -232 63
-69 211 -184 290 -226 18 -10 19 -9 9 12 -5 13 -28 32 -50 42 -21 11 -39 23
-39 28 0 4 -5 8 -11 8 -19 0 -134 97 -187 157 -70 79 -172 215 -172 229 0 7
-7 14 -15 18 -22 8 -18 40 9 81 26 38 40 77 51 138 5 33 25 54 25 25 0 -16 87
-143 179 -261 l76 -97 48 51 c59 64 62 78 4 21 l-42 -41 -65 80 c-36 44 -84
104 -106 132 -76 95 -110 163 -113 225 -3 73 -15 95 -29 54 -6 -16 -20 -33
-32 -37 -31 -10 -36 2 -10 23 40 32 7 111 -41 99 -20 -5 -21 -3 -17 45 4 35 0
65 -13 99 -28 72 -26 180 3 216 6 7 11 37 13 68 1 31 5 59 9 63 13 12 53 -48
71 -105 10 -30 19 -52 22 -49 6 6 -23 97 -43 135 -20 39 -18 174 5 264 24 93
43 130 91 183 21 23 46 56 54 73 9 17 21 31 25 31 5 0 31 16 57 37 32 24 62
38 89 40 22 3 67 11 100 20 33 8 102 18 153 22 82 6 98 4 125 -12 17 -11 74
-34 127 -51 153 -51 203 -93 289 -241 105 -178 127 -300 82 -448 -26 -83 -39
-102 -48 -68 -3 12 -9 21 -14 21 -15 0 -21 -22 -10 -33 6 -6 11 -23 11 -38 0
-15 5 -31 10 -34 19 -12 10 -46 -34 -138 -24 -51 -49 -117 -56 -147 -6 -30
-21 -74 -32 -97 -28 -58 -86 -123 -109 -123 -12 0 -24 -12 -33 -35 -25 -58
-76 -126 -113 -147 -18 -11 -32 -23 -29 -25 3 -3 21 4 41 15 19 12 35 19 35
17 0 -2 -35 -46 -77 -98 -43 -52 -87 -107 -99 -123 -19 -27 -25 -28 -97 -29
-73 0 -77 1 -111 34 -40 39 -44 54 -18 73 9 7 32 32 51 56 19 25 41 42 54 43
12 0 16 3 10 6 -21 8 -15 23 10 24 18 1 17 2 -8 10 -16 5 -40 11 -52 13 -13 3
-33 12 -45 20 -23 16 -78 22 -77 9 0 -14 108 -63 114 -53 8 13 35 13 35 0 0
-6 -19 -32 -43 -58 -24 -26 -53 -60 -65 -76 l-22 -28 20 -28 c11 -16 20 -33
20 -38 0 -6 19 -14 43 -17 61 -9 177 -12 177 -4 0 3 11 18 25 33 13 14 22 26
19 26 -3 0 16 27 41 60 47 62 65 73 65 43 -1 -27 -19 -104 -34 -138 -30 -68
-36 -87 -36 -103 0 -9 12 12 27 48 40 102 43 103 97 21 56 -84 83 -103 319
-225 186 -96 471 -258 557 -316 31 -21 84 -65 120 -99 58 -56 106 -79 98 -48
-2 6 -39 46 -83 88 -58 54 -125 102 -240 171 -132 79 -504 282 -620 338 -77
38 -163 158 -180 253 -7 36 -3 45 60 138 37 55 88 123 114 152 76 83 101 126
101 173 0 34 8 51 50 104 56 69 100 148 100 179 0 11 -9 25 -20 31 -26 14 -26
25 11 133 58 171 49 251 -46 442 -61 123 -129 215 -190 257 -22 15 -87 43
-145 62 -164 54 -168 56 -147 67 9 6 21 8 26 4 13 -8 44 39 75 113 41 98 26
109 -21 16 -55 -106 -95 -139 -107 -88 -7 28 12 54 40 54 15 0 16 7 10 58 -7
67 -49 135 -85 140 -22 4 -22 3 -6 -22z m-140 -67 c55 -29 118 -81 134 -112 9
-16 11 -38 7 -61 l-7 -36 -63 0 c-83 0 -208 -33 -303 -79 l-78 -38 -28 21
c-64 49 -151 126 -160 142 -7 12 8 7 49 -16 42 -24 68 -33 96 -31 34 2 39 -1
52 -32 l14 -35 53 10 c57 10 89 28 52 28 -26 0 -79 43 -88 70 -7 22 7 52 46
97 15 17 31 39 36 48 11 19 76 44 118 45 17 0 48 -10 70 -21z m715 -1212 c0
-17 -48 -63 -56 -54 -7 7 36 66 49 66 4 1 7 -5 7 -12z m-52 -102 c-11 -24 -28
-34 -28 -16 0 21 13 41 26 41 11 0 11 -5 2 -25z"/>
<path d="M1065 2518 c-38 -10 -89 -25 -112 -33 -33 -11 -43 -11 -43 -2 0 13
-50 47 -69 47 -6 0 -11 -7 -11 -15 0 -8 8 -15 18 -15 10 0 27 -7 38 -15 18
-13 17 -14 -16 -15 -20 0 -41 5 -47 11 -12 12 -33 4 -33 -11 0 -32 204 -39
221 -7 5 9 26 19 47 23 41 7 87 28 97 44 8 13 -7 11 -90 -12z"/>
<path d="M1497 2041 c22 -18 69 -18 58 0 -3 4 -12 6 -19 3 -8 -3 -17 -1 -21 5
-3 6 -14 11 -23 11 -14 -1 -13 -4 5 -19z"/>
<path d="M1615 2050 c4 -6 15 -10 24 -8 10 2 32 -10 51 -25 18 -15 39 -26 47
-23 8 4 27 6 41 6 23 1 25 2 10 11 -10 5 -24 9 -30 7 -7 -1 -35 8 -62 20 -52
23 -92 29 -81 12z"/>
<path d="M1375 1980 c-40 -18 -40 -19 -10 -19 17 0 47 2 68 5 30 5 35 9 26 20
-15 18 -35 17 -84 -6z"/>
<path d="M1265 1911 c-65 -39 -95 -83 -95 -138 0 -18 -4 -33 -10 -33 -5 0 -10
9 -10 20 0 26 -27 80 -41 80 -5 0 -3 -13 5 -29 10 -18 16 -60 17 -110 2 -111
26 -121 31 -13 1 23 5 42 10 42 15 0 23 -5 23 -15 0 -13 41 -80 78 -128 29
-38 30 -40 24 -128 -5 -61 -3 -89 4 -89 6 0 23 -8 37 -18 36 -25 139 -50 233
-58 71 -6 77 -5 92 16 8 12 13 29 10 38 -5 10 -2 13 6 8 14 -9 51 20 51 41 0
20 -18 16 -25 -7 -3 -11 -11 -20 -17 -20 -5 0 -24 -12 -41 -26 -33 -28 -46
-28 -197 -10 -39 5 -120 35 -120 45 -1 3 -5 40 -10 81 -15 125 -5 135 95 104
28 -8 106 -28 175 -44 69 -16 133 -32 143 -35 9 -4 17 -3 17 2 0 12 -34 22
-250 73 -170 40 -176 43 -205 78 -16 21 -49 58 -73 84 -37 40 -42 50 -33 67 6
11 11 28 11 38 0 21 31 43 129 93 28 14 30 18 15 22 -11 3 -44 -10 -79 -31z"/>
<path d="M2027 1900 c-4 -14 -8 -63 -10 -110 l-2 -84 -45 -13 c-24 -7 -51 -20
-59 -28 -22 -22 1 -19 49 5 22 11 42 20 45 20 3 0 5 -31 5 -69 0 -50 -4 -74
-16 -85 -8 -9 -11 -16 -5 -16 6 0 11 -12 11 -27 0 -14 2 -24 4 -22 9 9 19 78
21 149 2 41 6 86 9 100 10 37 3 212 -7 180z"/>
<path d="M2129 1894 c-7 -9 -16 -59 -20 -117 -4 -56 -10 -118 -13 -137 -11
-71 -17 -144 -12 -139 13 13 36 159 42 266 5 91 10 121 23 130 9 7 11 13 5 13
-6 0 -17 -7 -25 -16z"/>
<path d="M1350 1832 c-51 -8 -37 -17 28 -18 48 0 86 -8 135 -27 98 -39 188
-85 214 -109 28 -26 38 -20 17 10 -9 13 -52 41 -96 63 -118 59 -235 91 -298
81z"/>
<path d="M1065 1779 c-17 -6 -17 -8 -2 -8 23 -1 22 -22 -3 -28 -23 -6 -27 -23
-6 -23 20 0 38 26 34 48 -2 15 -8 17 -23 11z"/>
<path d="M1013 1768 c-6 -7 -13 -29 -17 -48 -6 -34 -6 -34 14 9 21 44 22 62 3
39z"/>
<path d="M1058 1684 c-13 -12 -9 -43 8 -76 11 -21 12 -34 5 -41 -6 -6 -13 1
-19 24 -9 31 -10 32 -11 8 -1 -34 26 -60 40 -38 11 18 11 33 0 45 -5 5 -11 26
-13 47 -2 22 -6 35 -10 31z"/>
<path d="M1350 1677 c0 -15 20 -37 33 -37 4 0 5 5 1 11 -10 17 37 0 61 -21 13
-12 30 -16 50 -13 20 3 49 -5 88 -25 31 -16 57 -28 57 -26 0 23 -29 39 -138
74 -70 23 -133 43 -139 45 -7 2 -13 -1 -13 -8z"/>
<path d="M1836 1581 c-29 -30 -37 -45 -34 -67 l4 -29 8 30 c5 17 25 47 44 68
20 20 32 37 26 37 -5 0 -27 -17 -48 -39z"/>
<path d="M1899 1535 c18 -8 43 -15 55 -14 18 0 16 3 -9 14 -16 8 -41 14 -55
14 -23 0 -22 -1 9 -14z"/>
<path d="M1760 1481 c0 -6 6 -11 14 -11 8 0 16 -8 19 -17 4 -17 4 -17 12 0 9
21 8 22 -22 31 -14 5 -23 3 -23 -3z"/>
<path d="M1853 1473 c-7 -2 -13 -9 -13 -14 0 -12 121 -11 140 1 11 7 0 10 -37
10 -28 0 -57 2 -65 4 -7 3 -19 2 -25 -1z"/>
<path d="M1798 1404 c-5 -4 -7 -37 -7 -73 1 -36 4 -56 6 -43 2 12 7 22 9 22
12 0 74 -56 74 -67 0 -14 10 -16 34 -7 23 9 20 24 -4 24 -27 0 -70 28 -70 46
0 7 -6 17 -14 21 -8 4 -16 25 -18 46 -2 22 -6 35 -10 31z"/>
<path d="M1748 1212 c-27 -15 -48 -30 -48 -34 0 -15 27 -8 60 17 19 14 40 25
48 25 7 0 10 5 7 10 -9 14 -14 13 -67 -18z"/>
<path d="M1590 1099 c19 -5 60 -13 90 -17 63 -8 69 -24 13 -32 -32 -5 -34 -7
-17 -13 14 -5 41 1 83 20 33 15 61 30 61 33 0 3 -33 5 -72 5 -40 0 -100 3
-133 7 -48 6 -53 5 -25 -3z"/>
<path d="M1281 943 c27 -46 39 -60 39 -47 0 11 -48 84 -56 84 -3 0 4 -17 17
-37z"/>
<path d="M1362 888 c-7 -10 -8 -18 -1 -28 8 -11 12 -12 16 -2 2 6 9 12 15 12
6 0 3 -9 -7 -20 -25 -28 -9 -39 18 -12 17 18 19 26 11 40 -14 22 -38 27 -52
10z"/>
<path d="M1522 785 c12 -35 33 -65 46 -65 9 0 12 -3 9 -7 -4 -3 -2 -12 4 -19
7 -9 6 -18 -3 -33 -10 -16 -10 -23 0 -33 9 -9 12 -7 12 12 0 15 16 38 46 65
34 32 45 48 42 66 -3 22 -5 21 -25 -14 -33 -55 -47 -56 -94 -6 -22 24 -39 40
-37 34z"/>
<path d="M1703 646 c-38 -35 -81 -75 -98 -89 -37 -32 -19 -36 21 -4 79 61 170
157 149 157 -3 0 -35 -29 -72 -64z"/>
</g>
</svg>
